<?xml version="1.0" encoding="utf-8"?><svg viewBox="0 0 68 68" xmlns="http://www.w3.org/2000/svg" xmlns:xlink="http://www.w3.org/1999/xlink"><style>:root>svg{display:none}:root>svg:target{display:block}</style><svg fill="none" viewBox="0 0 68 68" id="browser" xmlns="http://www.w3.org/2000/svg">
    <g clip-path="url(#aa)">
        <path fill="#FFD645" d="M46 27h12v30H46zM11 43h27v14H11zM11 27h27v6H11z"/>
        <path d="M62.023 0H5.977A5.983 5.983 0 0 0 0 5.977v56.046A5.983 5.983 0 0 0 5.977 68h56.046A5.983 5.983 0 0 0 68 62.023V5.977A5.983 5.983 0 0 0 62.023 0ZM3.984 5.977c0-1.099.894-1.993 1.993-1.993h9.96v11.954H3.985V5.976Zm60.032 56.046a1.994 1.994 0 0 1-1.993 1.993H5.977a1.994 1.994 0 0 1-1.993-1.993V19.922h60.032v42.101Zm0-46.086H19.922V3.985h42.101c1.099 0 1.993.894 1.993 1.993v9.96Z" fill="#000"/>
        <path d="M58.04 7.969h-3.985a1.992 1.992 0 0 0 0 3.984h3.984a1.992 1.992 0 0 0 0-3.984ZM45.953 7.969H41.97a1.992 1.992 0 1 0 0 3.984h3.984a1.992 1.992 0 0 0 0-3.984ZM34 7.969h-3.984a1.992 1.992 0 0 0 0 3.984H34a1.992 1.992 0 0 0 0-3.984ZM37.984 24.04H9.961c-1.1 0-1.992.891-1.992 1.991V34c0 1.1.892 1.992 1.992 1.992h28.023c1.1 0 1.993-.892 1.993-1.992v-7.969c0-1.1-.892-1.992-1.993-1.992Zm-1.992 7.968H11.953v-3.985h24.04v3.985ZM58.04 24.04H45.952c-1.1 0-1.992.891-1.992 1.991V58.04c0 1.1.892 1.992 1.992 1.992H58.04c1.1 0 1.992-.892 1.992-1.992V26.031c0-1.1-.892-1.992-1.992-1.992Zm-1.993 32.007h-8.102V28.023h8.102v28.024ZM37.984 39.977H9.961c-1.1 0-1.992.892-1.992 1.992v16.07c0 1.1.892 1.992 1.992 1.992h28.023c1.1 0 1.993-.892 1.993-1.992V41.97c0-1.1-.892-1.992-1.993-1.992Zm-1.992 16.07H11.953V43.96h24.04v12.086Z" fill="#000"/>
    </g>
    <defs>
        <clipPath id="aa">
            <path fill="#fff" d="M0 0h68v68H0z"/>
        </clipPath>
    </defs>
</svg><svg fill="none" viewBox="0 0 68 68" id="graphic" xmlns="http://www.w3.org/2000/svg">
    <g clip-path="url(#ba)">
        <path d="m30.5 24 9.093 12H21.407L30.5 24Z" fill="#FFD645"/>
        <path d="m42 17 12.99 19.5H29.01L42 17Z" fill="#FFD645"/>
        <path d="M66.008 47.945H1.992c-1.1 0-1.992.892-1.992 1.992v16.07C0 67.109.892 68 1.992 68h64.016c1.1 0 1.992-.892 1.992-1.992v-16.07c0-1.1-.892-1.993-1.992-1.993Zm-1.992 16.07h-4.118v-6.109a1.992 1.992 0 0 0-3.984 0v6.11H51.93V61.89a1.992 1.992 0 0 0-3.985 0v2.125h-3.984v-6.11a1.992 1.992 0 0 0-3.984 0v6.11h-3.985V61.89a1.992 1.992 0 0 0-3.984 0v2.125h-3.985v-6.11a1.992 1.992 0 0 0-3.984 0v6.11h-3.984V61.89a1.992 1.992 0 0 0-3.985 0v2.125h-3.984v-6.11a1.992 1.992 0 0 0-3.984 0v6.11H3.984V51.93h60.032v12.086ZM66.008 12.086c1.1 0 1.992-.892 1.992-1.992V1.992C68 .892 67.108 0 66.008 0h-8.102c-1.1 0-1.992.892-1.992 1.992v1.992H12.086V1.992c0-1.1-.892-1.992-1.992-1.992H1.992C.892 0 0 .892 0 1.992v8.102c0 1.1.892 1.992 1.992 1.992h1.992v19.922H1.992C.892 32.008 0 32.9 0 34v7.969c0 1.1.892 1.992 1.992 1.992h8.102c1.1 0 1.992-.892 1.992-1.992v-1.992h43.828v1.992c0 1.1.892 1.992 1.992 1.992h8.102c1.1 0 1.992-.892 1.992-1.992V34c0-1.1-.892-1.992-1.992-1.992h-1.992V12.086h1.992ZM3.984 3.984h4.118v4.118H3.984V3.984Zm4.118 35.993H3.984v-3.985h4.118v3.985Zm13.945-3.985 7.969-10.625 7.968 10.625H22.047Zm20.918 0-6.994-9.325 5.998-8.997 12.215 18.322h-11.22Zm13.662-3.518-13-19.501a1.994 1.994 0 0 0-3.316 0l-6.876 10.313-1.826-2.434a1.993 1.993 0 0 0-3.187 0l-11.356 15.14h-4.98V34c0-1.1-.892-1.992-1.992-1.992H7.969V12.086h2.125c1.1 0 1.992-.892 1.992-1.992V7.969h43.828v2.125c0 1.1.892 1.992 1.992 1.992h2.125v19.922h-2.125c-.487 0-.933.175-1.28.466Zm7.389 7.503h-4.118v-3.985h4.118v3.985ZM59.898 8.102V3.984h4.118v4.118h-4.118Z" fill="#000"/>
        <path d="M18.063 12.086a5.983 5.983 0 0 0-5.977 5.976 5.983 5.983 0 0 0 5.976 5.977 5.983 5.983 0 0 0 5.977-5.977 5.983 5.983 0 0 0-5.977-5.976Zm0 7.969a1.994 1.994 0 0 1-1.993-1.992c0-1.099.894-1.993 1.992-1.993 1.099 0 1.993.894 1.993 1.992a1.994 1.994 0 0 1-1.992 1.993Z" fill="#000"/>
    </g>
    <defs>
        <clipPath id="ba">
            <path fill="#fff" d="M0 0h68v68H0z"/>
        </clipPath>
    </defs>
</svg><svg fill="none" viewBox="0 0 41 41" id="socials--Behance" xmlns="http://www.w3.org/2000/svg">
    <g clip-path="url(#da)" fill="#070707" stroke="#070707" stroke-width=".5">
        <path d="M35.028.217H6.668C3.428.217.793 2.845.793 6.077v28.28c0 3.231 2.635 5.86 5.875 5.86h28.36c3.24 0 5.876-2.629 5.876-5.86V6.077c0-3.232-2.636-5.86-5.876-5.86Zm3.526 34.14a3.525 3.525 0 0 1-3.526 3.516H6.668a3.525 3.525 0 0 1-3.525-3.516V6.077A3.525 3.525 0 0 1 6.668 2.56h28.36a3.525 3.525 0 0 1 3.526 3.515v28.281Z"/>
        <path d="M19.673 16.701c0-2.585-2.108-4.687-4.7-4.687H7.922V28.42h7.05c2.593 0 4.701-2.103 4.701-4.688a4.67 4.67 0 0 0-1.596-3.515 4.67 4.67 0 0 0 1.596-3.516Zm-2.35 7.031a2.35 2.35 0 0 1-2.35 2.344h-4.701V21.39h4.7a2.35 2.35 0 0 1 2.35 2.343Zm-7.051-4.687v-4.688h4.7a2.35 2.35 0 0 1 2.35 2.344 2.35 2.35 0 0 1-2.35 2.344h-4.7ZM27.899 16.701c-3.24 0-5.876 2.629-5.876 5.86 0 3.23 2.636 5.859 5.876 5.859a5.9 5.9 0 0 0 5.089-2.929l-2.035-1.174a3.53 3.53 0 0 1-6.378-.585h9.2v-1.171c0-3.231-2.636-5.86-5.876-5.86Zm-3.324 4.688a3.53 3.53 0 0 1 6.648 0h-6.648ZM23.198 12.014H32.6v2.343h-9.4v-2.343Z"/>
    </g>
    <defs>
        <clipPath id="da">
            <path fill="#fff" transform="translate(.793 .217)" d="M0 0h40.111v40H0z"/>
        </clipPath>
    </defs>
</svg><svg fill="none" viewBox="0 0 40 40" id="socials--Dribble" xmlns="http://www.w3.org/2000/svg">
    <path d="m30.372 7.119.305-.385-.378-.312a16.673 16.673 0 0 0-10.67-3.845 16.9 16.9 0 0 0-4.097.524l-.727.182.447.602c1.39 1.87 3.388 4.696 5.78 9.121l.207.383.408-.152c4.527-1.68 7.24-4.252 8.725-6.118Zm-17.3-2.758-.246-.323-.366.173c-4.496 2.12-7.903 6.172-9.247 11.119l-.166.61.632.02c2.476.078 8.395-.038 14.952-1.795l.619-.166-.311-.56c-2.543-4.583-4.682-7.517-5.868-9.078ZM32.524 8.62l-.387-.46-.382.465c-1.656 2.021-4.531 4.646-9.084 6.428l-.506.198.24.488a72.893 72.893 0 0 1 2.801 6.427l.143.379.4-.061a38.401 38.401 0 0 1 8.637-.323c.56.046.92.098 1.34.159l.276.04.511.072.055-.514A17.619 17.619 0 0 0 32.526 8.62Zm-12.147 7.627-.185-.371-.399.113c-7.713 2.192-14.508 2.125-16.624 2.04l-.482-.02-.037.48-.002.034c-.037.477-.074.966-.074 1.486 0 5.233 2.264 9.905 5.835 13.102l.373.334.333-.373a49.726 49.726 0 0 1 3.556-3.608l.002-.002c2.746-2.531 6.28-5.21 10.128-6.379l.517-.157-.196-.503a74.489 74.489 0 0 0-2.745-6.176Zm9.49 7.896h-.006a38.167 38.167 0 0 0-3.182.293l-.594.08.185.57c.924 2.844 1.688 5.856 2.181 8.99l.125.789.655-.456a17.322 17.322 0 0 0 6.719-9.386l.165-.57-.59-.066c-1.46-.165-3.31-.332-5.658-.244Zm-5.656 1.186-.154-.454-.46.134c-3.38.984-6.918 3.535-9.598 5.995-1.295 1.179-2.341 2.298-3.18 3.214l-.414.45.524.316c2.545 1.535 5.501 2.437 8.69 2.437 2.394 0 4.652-.505 6.714-1.396l.348-.15-.051-.377c-.484-3.573-1.339-6.98-2.42-10.17ZM.576 19.999C.576 9.246 9.143.5 19.63.5c10.487 0 19.054 8.746 19.054 19.499 0 10.753-8.567 19.499-19.054 19.499C9.143 39.498.576 30.752.576 19.999Z" fill="#070707" stroke="#070707"/>
</svg><svg fill="none" viewBox="0 0 40 40" id="socials--Instargam" xmlns="http://www.w3.org/2000/svg">
    <path d="M11.874.51h.5V.5H28.28c5.965 0 10.847 4.985 10.847 11.112v16.774c0 6.128-4.883 11.112-10.837 11.112H11.873c-5.966 0-10.856-4.976-10.856-11.093V11.622C1.018 5.495 5.909.51 11.874.51ZM3.026 11.63v16.785c0 4.986 3.928 9.017 8.848 9.017H28.29c4.903 0 8.829-4.032 8.829-9.036V11.622c0-5.005-3.927-9.036-8.839-9.036H11.874c-4.912 0-8.838 4.032-8.848 9.044ZM31.11 7.7c0-.59.455-1.038 1.005-1.038.55 0 1.004.448 1.004 1.038 0 .59-.454 1.038-1.004 1.038S31.11 8.29 31.11 7.7ZM10.052 20.004c0-5.656 4.525-10.266 10.03-10.266 5.504 0 10.028 4.61 10.028 10.266S25.586 30.27 20.081 30.27c-5.504 0-10.029-4.61-10.029-10.266Zm18.05 0c0-4.534-3.56-8.19-8.02-8.19-4.461 0-8.021 3.656-8.021 8.19 0 4.533 3.56 8.19 8.02 8.19 4.461 0 8.021-3.657 8.021-8.19Z" fill="#070707" stroke="#070707"/>
</svg><svg fill="none" viewBox="0 0 42 42" id="socials--LinkedIn" xmlns="http://www.w3.org/2000/svg">
    <path d="M35.283.86h-28.4C3.64.86 1 3.491 1 6.726V35.05c0 3.236 2.64 5.869 5.884 5.869h28.399c3.244 0 5.884-2.633 5.884-5.869V6.727c0-3.235-2.64-5.868-5.884-5.868Zm3.53 34.19a3.53 3.53 0 0 1-3.53 3.521h-28.4a3.53 3.53 0 0 1-3.53-3.52V6.726a3.53 3.53 0 0 1 3.53-3.52h28.4a3.53 3.53 0 0 1 3.53 3.52V35.05Z" fill="#070707" stroke="#070707" stroke-width=".5"/>
    <mask id="ga" fill="#fff">
        <path d="M32.128 29.895h-4.312V22.694c0-.497-.036-.988-.161-1.473-.515-1.998-2.741-1.881-3.627-.934-.445.476-.735 1.014-.748 1.679-.003.158-.012.316-.012.474v7.454h-4.304V16.53h4.302v1.793l.034.015.092-.125c.432-.599.927-1.13 1.585-1.488.736-.402 1.53-.536 2.356-.512.895.026 1.744.227 2.51.709.98.617 1.579 1.52 1.929 2.604.273.844.362 1.716.363 2.598.002 2.538 0 5.077 0 7.616 0 .05-.004.1-.007.156Z"/>
    </mask>
    <path d="M32.128 29.895h-4.312V22.694c0-.497-.036-.988-.161-1.473-.515-1.998-2.741-1.881-3.627-.934-.445.476-.735 1.014-.748 1.679-.003.158-.012.316-.012.474v7.454h-4.304V16.53h4.302v1.793l.034.015.092-.125c.432-.599.927-1.13 1.585-1.488.736-.402 1.53-.536 2.356-.512.895.026 1.744.227 2.51.709.98.617 1.579 1.52 1.929 2.604.273.844.362 1.716.363 2.598.002 2.538 0 5.077 0 7.616 0 .05-.004.1-.007.156Z" fill="#070707"/>
    <path d="M32.128 29.895v.031h.029l.001-.029-.03-.002Zm-4.312 0h-.03v.031h.03v-.03Zm0-7.201h.031-.03Zm-.161-1.473.03-.007-.03.008Zm-3.627-.934.023.02-.023-.02Zm-.748 1.679h-.03.03Zm-.012.474h.03-.03Zm0 7.454v.03h.03v-.03h-.03Zm-4.304 0h-.03v.03h.03v-.03Zm0-13.365v-.03h-.03v.03h.03Zm4.302 0h.03v-.03h-.03v.03Zm0 1.793h-.031v.02l.018.008.012-.028Zm.034.015-.012.028.022.01.015-.02-.025-.018Zm.092-.125.025.018-.025-.018Zm1.585-1.488.015.026-.015-.026Zm2.356-.512.001-.03v.03Zm2.51.709.016-.026-.016.026Zm1.929 2.604-.03.01.03-.01Zm.363 2.598h.03-.03Zm0 7.616h-.03.03Zm-.007.126H27.816v.061H32.128v-.061Zm-4.281.03V29.696h-.061V29.896h.061Zm0-.198v-7.003h-.06c-.002 2.334-.001 4.668-.001 7.003h.061Zm0-7.003c0-.499-.037-.992-.162-1.48l-.06.015c.124.481.161.97.161 1.465h.061Zm-.162-1.48c-.261-1.012-.957-1.49-1.7-1.595-.74-.103-1.529.165-1.98.647l.046.042c.435-.466 1.203-.73 1.925-.628.72.1 1.395.563 1.65 1.55l.059-.016Zm-3.68-.948c-.448.48-.743 1.025-.755 1.7h.06c.013-.655.3-1.186.74-1.658l-.044-.042Zm-.755 1.7c-.003.155-.012.317-.012.474h.06c0-.158.01-.313.013-.474h-.061Zm-.012.474-.001 7.249h.061V22.44h-.06Zm-.001 7.249V29.895h.061V29.688h-.061Zm.03.175H18.965v.06H23.268v-.06Zm-4.273.03V16.53h-.06V29.894h.06Zm-.03-13.334H23.265v-.061H18.965v.06Zm4.27-.03V18.321h.062V16.53h-.061Zm.02 1.82.034.015.024-.056-.034-.015-.025.056Zm.07.005c.03-.04.063-.083.093-.125l-.05-.036-.092.125.05.036Zm.093-.125c.43-.597.922-1.124 1.575-1.48l-.03-.053c-.663.362-1.162.897-1.594 1.497l.05.036Zm1.575-1.48c.73-.398 1.518-.532 2.34-.508l.002-.06c-.83-.025-1.63.11-2.371.515l.029.053Zm2.34-.508c.891.026 1.735.227 2.494.704l.033-.051c-.771-.485-1.626-.688-2.525-.714l-.002.061Zm2.494.704c.974.613 1.568 1.51 1.916 2.588l.059-.018c-.352-1.09-.954-2-1.942-2.621l-.033.052Zm1.916 2.588c.272.84.361 1.709.362 2.589h.062c-.001-.885-.091-1.76-.365-2.608l-.058.02Zm.362 2.589c.002 2.538.001 5.077 0 7.616h.062c0-2.539.002-5.078 0-7.616h-.062Zm0 7.616c0 .049-.004.096-.007.155l.061.003c.003-.056.008-.107.008-.158h-.061Z" fill="#070707" mask="url(#ga)"/>
    <path d="M16.319 29.887H12.069V16.542H16.319V29.887ZM14.377 9.888c.67 0 1.242.237 1.646.644.404.406.643.982.645 1.659.002.67-.238 1.24-.648 1.643-.41.404-.991.641-1.675.641-1.332.001-2.281-.95-2.284-2.29-.002-1.34.96-2.295 2.316-2.297Z" fill="#070707" stroke="#070707" stroke-width=".031"/>
</svg><svg fill="none" viewBox="0 0 68 68" id="startup" xmlns="http://www.w3.org/2000/svg">
    <g clip-path="url(#ca)">
        <path d="m24.5 22.5-6.5 4v9l1.5 1.5 5-3" stroke="#000"/>
        <path d="m24 22.5.5 11.5-2 1-4.5 2.5-.5-2.5.5-8.5 6-4ZM26 31.5l1.5-19 6-10.5L37 4l7 17.5 5 6V38l-5-3h-5.5L42 45H26l3-10-3-3.5Z" fill="#FFD645" stroke="#000"/>
        <path d="M62.023 7.97H40.975c-.065 0-.13.003-.194.009A29.033 29.033 0 0 0 35.409.584a1.992 1.992 0 0 0-2.818 0 29.033 29.033 0 0 0-5.371 7.395 1.977 1.977 0 0 0-.195-.01H5.977A5.983 5.983 0 0 0 0 13.946v35.86a5.983 5.983 0 0 0 5.977 5.976h17.31L20.6 64.016h-2.538a1.992 1.992 0 1 0 0 3.984h31.875a1.992 1.992 0 0 0 0-3.984h-2.54l-2.684-8.234h17.31A5.983 5.983 0 0 0 68 49.805v-35.86a5.983 5.983 0 0 0-5.977-5.976ZM34 4.927a25.08 25.08 0 0 1 3.893 6.235 9.953 9.953 0 0 1-3.893.79 9.95 9.95 0 0 1-3.893-.79A25.084 25.084 0 0 1 34 4.928Zm-5.977 16.987c0-2.194.09-4.247.789-6.976 1.64.657 3.397.999 5.188.999 1.79 0 3.548-.342 5.188-1 .69 2.698.789 4.758.789 6.977v9.96H28.023v-9.96Zm11.182 21.914h-10.41l2.657-7.97h5.096l2.657 7.97ZM3.985 13.946c0-1.099.893-1.992 1.992-1.992h19.575a28.995 28.995 0 0 0-1.49 8.165c-4.552.916-7.992 4.946-7.992 9.764v7.97a1.992 1.992 0 0 0 2.883 1.781l7.549-3.774h.75l-2.657 7.969H3.985V13.946Zm20.054 10.302v8.388l-3.984 1.993v-4.746a5.987 5.987 0 0 1 3.984-5.635Zm.753 39.768 2.685-8.234h13.046l2.685 8.234H24.792Zm39.224-14.21a1.994 1.994 0 0 1-1.993 1.991H5.977a1.994 1.994 0 0 1-1.993-1.992v-1.992h60.032v1.992Zm0-5.977H43.405l-2.657-7.97h.75l7.549 3.775a1.992 1.992 0 0 0 2.883-1.782v-7.969c0-4.818-3.44-8.848-7.992-9.764a28.987 28.987 0 0 0-1.49-8.165h19.575c1.099 0 1.993.893 1.993 1.992v29.883ZM43.96 32.636v-8.388a5.987 5.987 0 0 1 3.984 5.635v4.746l-3.984-1.993Z" fill="#000"/>
        <path d="M34 23.906a1.992 1.992 0 1 0 0-3.984 1.992 1.992 0 0 0 0 3.984Z" fill="#000"/>
    </g>
    <defs>
        <clipPath id="ca">
            <path fill="#fff" d="M0 0h68v68H0z"/>
        </clipPath>
    </defs>
</svg></svg>